G04 MADE WITH FRITZING*
G04 WWW.FRITZING.ORG*
G04 DOUBLE SIDED*
G04 HOLES PLATED*
G04 CONTOUR ON CENTER OF CONTOUR VECTOR*
%ASAXBY*%
%FSLAX23Y23*%
%MOIN*%
%OFA0B0*%
%SFA1.0B1.0*%
%ADD10C,0.075000*%
%ADD11C,0.039370*%
%ADD12R,0.031496X0.059055*%
%ADD13C,0.012000*%
%LNCOPPER0*%
G90*
G70*
G54D10*
X105Y247D03*
G54D11*
X186Y78D03*
X136Y78D03*
X86Y78D03*
X187Y27D03*
X137Y27D03*
X87Y27D03*
G54D12*
X240Y35D03*
G54D13*
X204Y30D02*
X230Y33D01*
G36*
X40Y314D02*
X40Y106D01*
X196Y106D01*
X196Y104D01*
X200Y104D01*
X200Y102D01*
X202Y102D01*
X202Y100D01*
X222Y100D01*
X222Y314D01*
X40Y314D01*
G37*
D02*
G36*
X40Y106D02*
X40Y88D01*
X60Y88D01*
X60Y92D01*
X62Y92D01*
X62Y94D01*
X64Y94D01*
X64Y96D01*
X66Y96D01*
X66Y98D01*
X68Y98D01*
X68Y100D01*
X70Y100D01*
X70Y102D01*
X74Y102D01*
X74Y104D01*
X78Y104D01*
X78Y106D01*
X40Y106D01*
G37*
D02*
G36*
X96Y106D02*
X96Y104D01*
X100Y104D01*
X100Y102D01*
X124Y102D01*
X124Y104D01*
X128Y104D01*
X128Y106D01*
X96Y106D01*
G37*
D02*
G36*
X146Y106D02*
X146Y104D01*
X150Y104D01*
X150Y102D01*
X174Y102D01*
X174Y104D01*
X178Y104D01*
X178Y106D01*
X146Y106D01*
G37*
D02*
G04 End of Copper0*
M02*