G04 MADE WITH FRITZING*
G04 WWW.FRITZING.ORG*
G04 DOUBLE SIDED*
G04 HOLES PLATED*
G04 CONTOUR ON CENTER OF CONTOUR VECTOR*
%ASAXBY*%
%FSLAX23Y23*%
%MOIN*%
%OFA0B0*%
%SFA1.0B1.0*%
%ADD10R,0.001000X0.001000*%
%LNSILK0*%
G90*
G70*
G54D10*
X0Y354D02*
X262Y354D01*
X0Y353D02*
X262Y353D01*
X0Y352D02*
X262Y352D01*
X0Y351D02*
X262Y351D01*
X0Y350D02*
X262Y350D01*
X0Y349D02*
X262Y349D01*
X0Y348D02*
X262Y348D01*
X0Y347D02*
X262Y347D01*
X0Y346D02*
X7Y346D01*
X255Y346D02*
X262Y346D01*
X0Y345D02*
X7Y345D01*
X255Y345D02*
X262Y345D01*
X0Y344D02*
X7Y344D01*
X255Y344D02*
X262Y344D01*
X0Y343D02*
X7Y343D01*
X255Y343D02*
X262Y343D01*
X0Y342D02*
X7Y342D01*
X255Y342D02*
X262Y342D01*
X0Y341D02*
X7Y341D01*
X255Y341D02*
X262Y341D01*
X0Y340D02*
X7Y340D01*
X255Y340D02*
X262Y340D01*
X0Y339D02*
X7Y339D01*
X255Y339D02*
X262Y339D01*
X0Y338D02*
X7Y338D01*
X255Y338D02*
X262Y338D01*
X0Y337D02*
X7Y337D01*
X255Y337D02*
X262Y337D01*
X0Y336D02*
X7Y336D01*
X255Y336D02*
X262Y336D01*
X0Y335D02*
X7Y335D01*
X255Y335D02*
X262Y335D01*
X0Y334D02*
X7Y334D01*
X255Y334D02*
X262Y334D01*
X0Y333D02*
X7Y333D01*
X255Y333D02*
X262Y333D01*
X0Y332D02*
X7Y332D01*
X255Y332D02*
X262Y332D01*
X0Y331D02*
X7Y331D01*
X255Y331D02*
X262Y331D01*
X0Y330D02*
X7Y330D01*
X255Y330D02*
X262Y330D01*
X0Y329D02*
X7Y329D01*
X255Y329D02*
X262Y329D01*
X0Y328D02*
X7Y328D01*
X255Y328D02*
X262Y328D01*
X0Y327D02*
X7Y327D01*
X255Y327D02*
X262Y327D01*
X0Y326D02*
X7Y326D01*
X255Y326D02*
X262Y326D01*
X0Y325D02*
X7Y325D01*
X255Y325D02*
X262Y325D01*
X0Y324D02*
X7Y324D01*
X255Y324D02*
X262Y324D01*
X0Y323D02*
X7Y323D01*
X255Y323D02*
X262Y323D01*
X0Y322D02*
X7Y322D01*
X255Y322D02*
X262Y322D01*
X0Y321D02*
X7Y321D01*
X255Y321D02*
X262Y321D01*
X0Y320D02*
X7Y320D01*
X255Y320D02*
X262Y320D01*
X0Y319D02*
X7Y319D01*
X255Y319D02*
X262Y319D01*
X0Y318D02*
X7Y318D01*
X255Y318D02*
X262Y318D01*
X0Y317D02*
X7Y317D01*
X255Y317D02*
X262Y317D01*
X0Y316D02*
X7Y316D01*
X255Y316D02*
X262Y316D01*
X0Y315D02*
X7Y315D01*
X255Y315D02*
X262Y315D01*
X0Y314D02*
X7Y314D01*
X255Y314D02*
X262Y314D01*
X0Y313D02*
X7Y313D01*
X255Y313D02*
X262Y313D01*
X0Y312D02*
X7Y312D01*
X255Y312D02*
X262Y312D01*
X0Y311D02*
X7Y311D01*
X255Y311D02*
X262Y311D01*
X0Y310D02*
X7Y310D01*
X255Y310D02*
X262Y310D01*
X0Y309D02*
X7Y309D01*
X255Y309D02*
X262Y309D01*
X0Y308D02*
X7Y308D01*
X255Y308D02*
X262Y308D01*
X0Y307D02*
X7Y307D01*
X255Y307D02*
X262Y307D01*
X0Y306D02*
X7Y306D01*
X255Y306D02*
X262Y306D01*
X0Y305D02*
X7Y305D01*
X255Y305D02*
X262Y305D01*
X0Y304D02*
X7Y304D01*
X255Y304D02*
X262Y304D01*
X0Y303D02*
X7Y303D01*
X255Y303D02*
X262Y303D01*
X0Y302D02*
X7Y302D01*
X255Y302D02*
X262Y302D01*
X0Y301D02*
X7Y301D01*
X255Y301D02*
X262Y301D01*
X0Y300D02*
X7Y300D01*
X255Y300D02*
X262Y300D01*
X0Y299D02*
X7Y299D01*
X255Y299D02*
X262Y299D01*
X0Y298D02*
X7Y298D01*
X255Y298D02*
X262Y298D01*
X0Y297D02*
X7Y297D01*
X255Y297D02*
X262Y297D01*
X0Y296D02*
X7Y296D01*
X255Y296D02*
X262Y296D01*
X0Y295D02*
X7Y295D01*
X255Y295D02*
X262Y295D01*
X0Y294D02*
X7Y294D01*
X255Y294D02*
X262Y294D01*
X0Y293D02*
X7Y293D01*
X255Y293D02*
X262Y293D01*
X0Y292D02*
X7Y292D01*
X255Y292D02*
X262Y292D01*
X0Y291D02*
X7Y291D01*
X255Y291D02*
X262Y291D01*
X0Y290D02*
X7Y290D01*
X255Y290D02*
X262Y290D01*
X0Y289D02*
X7Y289D01*
X255Y289D02*
X262Y289D01*
X0Y288D02*
X7Y288D01*
X255Y288D02*
X262Y288D01*
X0Y287D02*
X7Y287D01*
X255Y287D02*
X262Y287D01*
X0Y286D02*
X7Y286D01*
X255Y286D02*
X262Y286D01*
X0Y285D02*
X7Y285D01*
X255Y285D02*
X262Y285D01*
X0Y284D02*
X7Y284D01*
X255Y284D02*
X262Y284D01*
X0Y283D02*
X7Y283D01*
X255Y283D02*
X262Y283D01*
X0Y282D02*
X7Y282D01*
X255Y282D02*
X262Y282D01*
X0Y281D02*
X7Y281D01*
X255Y281D02*
X262Y281D01*
X0Y280D02*
X7Y280D01*
X255Y280D02*
X262Y280D01*
X0Y279D02*
X7Y279D01*
X255Y279D02*
X262Y279D01*
X0Y278D02*
X7Y278D01*
X255Y278D02*
X262Y278D01*
X0Y277D02*
X7Y277D01*
X255Y277D02*
X262Y277D01*
X0Y276D02*
X7Y276D01*
X255Y276D02*
X262Y276D01*
X0Y275D02*
X7Y275D01*
X255Y275D02*
X262Y275D01*
X0Y274D02*
X7Y274D01*
X255Y274D02*
X262Y274D01*
X0Y273D02*
X7Y273D01*
X255Y273D02*
X262Y273D01*
X0Y272D02*
X7Y272D01*
X255Y272D02*
X262Y272D01*
X0Y271D02*
X7Y271D01*
X255Y271D02*
X262Y271D01*
X0Y270D02*
X7Y270D01*
X255Y270D02*
X262Y270D01*
X0Y269D02*
X7Y269D01*
X255Y269D02*
X262Y269D01*
X0Y268D02*
X7Y268D01*
X255Y268D02*
X262Y268D01*
X0Y267D02*
X7Y267D01*
X255Y267D02*
X262Y267D01*
X0Y266D02*
X7Y266D01*
X255Y266D02*
X262Y266D01*
X0Y265D02*
X7Y265D01*
X255Y265D02*
X262Y265D01*
X0Y264D02*
X7Y264D01*
X255Y264D02*
X262Y264D01*
X0Y263D02*
X7Y263D01*
X255Y263D02*
X262Y263D01*
X0Y262D02*
X7Y262D01*
X255Y262D02*
X262Y262D01*
X0Y261D02*
X7Y261D01*
X255Y261D02*
X262Y261D01*
X0Y260D02*
X7Y260D01*
X255Y260D02*
X262Y260D01*
X0Y259D02*
X7Y259D01*
X255Y259D02*
X262Y259D01*
X0Y258D02*
X7Y258D01*
X255Y258D02*
X262Y258D01*
X0Y257D02*
X7Y257D01*
X255Y257D02*
X262Y257D01*
X0Y256D02*
X7Y256D01*
X255Y256D02*
X262Y256D01*
X0Y255D02*
X7Y255D01*
X255Y255D02*
X262Y255D01*
X0Y254D02*
X7Y254D01*
X255Y254D02*
X262Y254D01*
X0Y253D02*
X7Y253D01*
X255Y253D02*
X262Y253D01*
X0Y252D02*
X7Y252D01*
X255Y252D02*
X262Y252D01*
X0Y251D02*
X7Y251D01*
X255Y251D02*
X262Y251D01*
X0Y250D02*
X7Y250D01*
X255Y250D02*
X262Y250D01*
X0Y249D02*
X7Y249D01*
X255Y249D02*
X262Y249D01*
X0Y248D02*
X7Y248D01*
X255Y248D02*
X262Y248D01*
X0Y247D02*
X7Y247D01*
X255Y247D02*
X262Y247D01*
X0Y246D02*
X7Y246D01*
X255Y246D02*
X262Y246D01*
X0Y245D02*
X7Y245D01*
X255Y245D02*
X262Y245D01*
X0Y244D02*
X7Y244D01*
X255Y244D02*
X262Y244D01*
X0Y243D02*
X7Y243D01*
X255Y243D02*
X262Y243D01*
X0Y242D02*
X7Y242D01*
X255Y242D02*
X262Y242D01*
X0Y241D02*
X7Y241D01*
X255Y241D02*
X262Y241D01*
X0Y240D02*
X7Y240D01*
X255Y240D02*
X262Y240D01*
X0Y239D02*
X7Y239D01*
X255Y239D02*
X262Y239D01*
X0Y238D02*
X7Y238D01*
X255Y238D02*
X262Y238D01*
X0Y237D02*
X7Y237D01*
X255Y237D02*
X262Y237D01*
X0Y236D02*
X7Y236D01*
X255Y236D02*
X262Y236D01*
X0Y235D02*
X7Y235D01*
X255Y235D02*
X262Y235D01*
X0Y234D02*
X7Y234D01*
X255Y234D02*
X262Y234D01*
X0Y233D02*
X7Y233D01*
X255Y233D02*
X262Y233D01*
X0Y232D02*
X7Y232D01*
X255Y232D02*
X262Y232D01*
X0Y231D02*
X7Y231D01*
X255Y231D02*
X262Y231D01*
X0Y230D02*
X7Y230D01*
X255Y230D02*
X262Y230D01*
X0Y229D02*
X7Y229D01*
X255Y229D02*
X262Y229D01*
X0Y228D02*
X7Y228D01*
X255Y228D02*
X262Y228D01*
X0Y227D02*
X7Y227D01*
X255Y227D02*
X262Y227D01*
X0Y226D02*
X7Y226D01*
X255Y226D02*
X262Y226D01*
X0Y225D02*
X7Y225D01*
X255Y225D02*
X262Y225D01*
X0Y224D02*
X7Y224D01*
X255Y224D02*
X262Y224D01*
X0Y223D02*
X7Y223D01*
X255Y223D02*
X262Y223D01*
X0Y222D02*
X7Y222D01*
X255Y222D02*
X262Y222D01*
X0Y221D02*
X7Y221D01*
X255Y221D02*
X262Y221D01*
X0Y220D02*
X7Y220D01*
X255Y220D02*
X262Y220D01*
X0Y219D02*
X7Y219D01*
X255Y219D02*
X262Y219D01*
X0Y218D02*
X7Y218D01*
X255Y218D02*
X262Y218D01*
X0Y217D02*
X7Y217D01*
X255Y217D02*
X262Y217D01*
X0Y216D02*
X7Y216D01*
X255Y216D02*
X262Y216D01*
X0Y215D02*
X7Y215D01*
X255Y215D02*
X262Y215D01*
X0Y214D02*
X7Y214D01*
X255Y214D02*
X262Y214D01*
X0Y213D02*
X7Y213D01*
X255Y213D02*
X262Y213D01*
X0Y212D02*
X7Y212D01*
X255Y212D02*
X262Y212D01*
X0Y211D02*
X7Y211D01*
X255Y211D02*
X262Y211D01*
X0Y210D02*
X7Y210D01*
X255Y210D02*
X262Y210D01*
X0Y209D02*
X7Y209D01*
X255Y209D02*
X262Y209D01*
X0Y208D02*
X7Y208D01*
X255Y208D02*
X262Y208D01*
X0Y207D02*
X7Y207D01*
X255Y207D02*
X262Y207D01*
X0Y206D02*
X7Y206D01*
X255Y206D02*
X262Y206D01*
X0Y205D02*
X7Y205D01*
X255Y205D02*
X262Y205D01*
X0Y204D02*
X7Y204D01*
X255Y204D02*
X262Y204D01*
X0Y203D02*
X7Y203D01*
X255Y203D02*
X262Y203D01*
X0Y202D02*
X7Y202D01*
X255Y202D02*
X262Y202D01*
X0Y201D02*
X7Y201D01*
X255Y201D02*
X262Y201D01*
X0Y200D02*
X7Y200D01*
X255Y200D02*
X262Y200D01*
X0Y199D02*
X7Y199D01*
X255Y199D02*
X262Y199D01*
X0Y198D02*
X7Y198D01*
X255Y198D02*
X262Y198D01*
X0Y197D02*
X7Y197D01*
X255Y197D02*
X262Y197D01*
X0Y196D02*
X7Y196D01*
X255Y196D02*
X262Y196D01*
X0Y195D02*
X7Y195D01*
X255Y195D02*
X262Y195D01*
X0Y194D02*
X7Y194D01*
X255Y194D02*
X262Y194D01*
X0Y193D02*
X7Y193D01*
X255Y193D02*
X262Y193D01*
X0Y192D02*
X7Y192D01*
X255Y192D02*
X262Y192D01*
X0Y191D02*
X7Y191D01*
X255Y191D02*
X262Y191D01*
X0Y190D02*
X7Y190D01*
X255Y190D02*
X262Y190D01*
X0Y189D02*
X7Y189D01*
X255Y189D02*
X262Y189D01*
X0Y188D02*
X7Y188D01*
X255Y188D02*
X262Y188D01*
X0Y187D02*
X7Y187D01*
X255Y187D02*
X262Y187D01*
X0Y186D02*
X7Y186D01*
X255Y186D02*
X262Y186D01*
X0Y185D02*
X7Y185D01*
X255Y185D02*
X262Y185D01*
X0Y184D02*
X7Y184D01*
X255Y184D02*
X262Y184D01*
X0Y183D02*
X7Y183D01*
X255Y183D02*
X262Y183D01*
X0Y182D02*
X7Y182D01*
X255Y182D02*
X262Y182D01*
X0Y181D02*
X7Y181D01*
X255Y181D02*
X262Y181D01*
X0Y180D02*
X7Y180D01*
X255Y180D02*
X262Y180D01*
X0Y179D02*
X7Y179D01*
X255Y179D02*
X262Y179D01*
X0Y178D02*
X7Y178D01*
X255Y178D02*
X262Y178D01*
X0Y177D02*
X7Y177D01*
X255Y177D02*
X262Y177D01*
X0Y176D02*
X7Y176D01*
X255Y176D02*
X262Y176D01*
X0Y175D02*
X7Y175D01*
X255Y175D02*
X262Y175D01*
X0Y174D02*
X7Y174D01*
X255Y174D02*
X262Y174D01*
X0Y173D02*
X7Y173D01*
X255Y173D02*
X262Y173D01*
X0Y172D02*
X7Y172D01*
X255Y172D02*
X262Y172D01*
X0Y171D02*
X7Y171D01*
X255Y171D02*
X262Y171D01*
X0Y170D02*
X7Y170D01*
X255Y170D02*
X262Y170D01*
X0Y169D02*
X7Y169D01*
X255Y169D02*
X262Y169D01*
X0Y168D02*
X7Y168D01*
X255Y168D02*
X262Y168D01*
X0Y167D02*
X7Y167D01*
X255Y167D02*
X262Y167D01*
X0Y166D02*
X7Y166D01*
X255Y166D02*
X262Y166D01*
X0Y165D02*
X7Y165D01*
X255Y165D02*
X262Y165D01*
X0Y164D02*
X7Y164D01*
X255Y164D02*
X262Y164D01*
X0Y163D02*
X7Y163D01*
X255Y163D02*
X262Y163D01*
X0Y162D02*
X7Y162D01*
X255Y162D02*
X262Y162D01*
X0Y161D02*
X7Y161D01*
X255Y161D02*
X262Y161D01*
X0Y160D02*
X7Y160D01*
X255Y160D02*
X262Y160D01*
X0Y159D02*
X7Y159D01*
X255Y159D02*
X262Y159D01*
X0Y158D02*
X7Y158D01*
X255Y158D02*
X262Y158D01*
X0Y157D02*
X7Y157D01*
X255Y157D02*
X262Y157D01*
X0Y156D02*
X7Y156D01*
X255Y156D02*
X262Y156D01*
X0Y155D02*
X7Y155D01*
X255Y155D02*
X262Y155D01*
X0Y154D02*
X7Y154D01*
X255Y154D02*
X262Y154D01*
X0Y153D02*
X7Y153D01*
X255Y153D02*
X262Y153D01*
X0Y152D02*
X7Y152D01*
X255Y152D02*
X262Y152D01*
X0Y151D02*
X7Y151D01*
X255Y151D02*
X262Y151D01*
X0Y150D02*
X7Y150D01*
X255Y150D02*
X262Y150D01*
X0Y149D02*
X7Y149D01*
X255Y149D02*
X262Y149D01*
X0Y148D02*
X7Y148D01*
X255Y148D02*
X262Y148D01*
X0Y147D02*
X7Y147D01*
X255Y147D02*
X262Y147D01*
X0Y146D02*
X7Y146D01*
X255Y146D02*
X262Y146D01*
X0Y145D02*
X7Y145D01*
X255Y145D02*
X262Y145D01*
X0Y144D02*
X7Y144D01*
X255Y144D02*
X262Y144D01*
X0Y143D02*
X7Y143D01*
X255Y143D02*
X262Y143D01*
X0Y142D02*
X7Y142D01*
X255Y142D02*
X262Y142D01*
X0Y141D02*
X7Y141D01*
X255Y141D02*
X262Y141D01*
X0Y140D02*
X7Y140D01*
X255Y140D02*
X262Y140D01*
X0Y139D02*
X7Y139D01*
X255Y139D02*
X262Y139D01*
X0Y138D02*
X7Y138D01*
X255Y138D02*
X262Y138D01*
X0Y137D02*
X7Y137D01*
X255Y137D02*
X262Y137D01*
X0Y136D02*
X7Y136D01*
X255Y136D02*
X262Y136D01*
X0Y135D02*
X7Y135D01*
X255Y135D02*
X262Y135D01*
X0Y134D02*
X7Y134D01*
X255Y134D02*
X262Y134D01*
X0Y133D02*
X7Y133D01*
X255Y133D02*
X262Y133D01*
X0Y132D02*
X7Y132D01*
X255Y132D02*
X262Y132D01*
X0Y131D02*
X7Y131D01*
X255Y131D02*
X262Y131D01*
X0Y130D02*
X7Y130D01*
X255Y130D02*
X262Y130D01*
X0Y129D02*
X7Y129D01*
X255Y129D02*
X262Y129D01*
X0Y128D02*
X7Y128D01*
X255Y128D02*
X262Y128D01*
X0Y127D02*
X7Y127D01*
X255Y127D02*
X262Y127D01*
X0Y126D02*
X7Y126D01*
X255Y126D02*
X262Y126D01*
X0Y125D02*
X7Y125D01*
X255Y125D02*
X262Y125D01*
X0Y124D02*
X7Y124D01*
X255Y124D02*
X262Y124D01*
X0Y123D02*
X7Y123D01*
X255Y123D02*
X262Y123D01*
X0Y122D02*
X7Y122D01*
X255Y122D02*
X262Y122D01*
X0Y121D02*
X7Y121D01*
X255Y121D02*
X262Y121D01*
X0Y120D02*
X7Y120D01*
X255Y120D02*
X262Y120D01*
X0Y119D02*
X7Y119D01*
X255Y119D02*
X262Y119D01*
X0Y118D02*
X7Y118D01*
X255Y118D02*
X262Y118D01*
X0Y117D02*
X7Y117D01*
X255Y117D02*
X262Y117D01*
X0Y116D02*
X7Y116D01*
X255Y116D02*
X262Y116D01*
X0Y115D02*
X7Y115D01*
X255Y115D02*
X262Y115D01*
X0Y114D02*
X7Y114D01*
X255Y114D02*
X262Y114D01*
X0Y113D02*
X7Y113D01*
X255Y113D02*
X262Y113D01*
X0Y112D02*
X7Y112D01*
X255Y112D02*
X262Y112D01*
X0Y111D02*
X7Y111D01*
X255Y111D02*
X262Y111D01*
X0Y110D02*
X7Y110D01*
X255Y110D02*
X262Y110D01*
X0Y109D02*
X7Y109D01*
X255Y109D02*
X262Y109D01*
X0Y108D02*
X7Y108D01*
X255Y108D02*
X262Y108D01*
X0Y107D02*
X7Y107D01*
X255Y107D02*
X262Y107D01*
X0Y106D02*
X7Y106D01*
X255Y106D02*
X262Y106D01*
X0Y105D02*
X7Y105D01*
X255Y105D02*
X262Y105D01*
X0Y104D02*
X7Y104D01*
X255Y104D02*
X262Y104D01*
X0Y103D02*
X7Y103D01*
X255Y103D02*
X262Y103D01*
X0Y102D02*
X7Y102D01*
X255Y102D02*
X262Y102D01*
X0Y101D02*
X7Y101D01*
X255Y101D02*
X262Y101D01*
X0Y100D02*
X7Y100D01*
X255Y100D02*
X262Y100D01*
X0Y99D02*
X7Y99D01*
X255Y99D02*
X262Y99D01*
X0Y98D02*
X7Y98D01*
X255Y98D02*
X262Y98D01*
X0Y97D02*
X7Y97D01*
X255Y97D02*
X262Y97D01*
X0Y96D02*
X7Y96D01*
X255Y96D02*
X262Y96D01*
X0Y95D02*
X7Y95D01*
X255Y95D02*
X262Y95D01*
X0Y94D02*
X7Y94D01*
X255Y94D02*
X262Y94D01*
X0Y93D02*
X7Y93D01*
X255Y93D02*
X262Y93D01*
X0Y92D02*
X7Y92D01*
X255Y92D02*
X262Y92D01*
X0Y91D02*
X7Y91D01*
X255Y91D02*
X262Y91D01*
X0Y90D02*
X7Y90D01*
X255Y90D02*
X262Y90D01*
X0Y89D02*
X7Y89D01*
X255Y89D02*
X262Y89D01*
X0Y88D02*
X7Y88D01*
X255Y88D02*
X262Y88D01*
X0Y87D02*
X7Y87D01*
X255Y87D02*
X262Y87D01*
X0Y86D02*
X7Y86D01*
X255Y86D02*
X262Y86D01*
X0Y85D02*
X7Y85D01*
X255Y85D02*
X262Y85D01*
X0Y84D02*
X7Y84D01*
X255Y84D02*
X262Y84D01*
X0Y83D02*
X7Y83D01*
X255Y83D02*
X262Y83D01*
X0Y82D02*
X7Y82D01*
X255Y82D02*
X262Y82D01*
X0Y81D02*
X7Y81D01*
X255Y81D02*
X262Y81D01*
X0Y80D02*
X7Y80D01*
X255Y80D02*
X262Y80D01*
X0Y79D02*
X7Y79D01*
X255Y79D02*
X262Y79D01*
X0Y78D02*
X7Y78D01*
X255Y78D02*
X262Y78D01*
X0Y77D02*
X7Y77D01*
X255Y77D02*
X262Y77D01*
X0Y76D02*
X7Y76D01*
X255Y76D02*
X262Y76D01*
X0Y75D02*
X7Y75D01*
X255Y75D02*
X262Y75D01*
X0Y74D02*
X7Y74D01*
X255Y74D02*
X262Y74D01*
X0Y73D02*
X7Y73D01*
X255Y73D02*
X262Y73D01*
X0Y72D02*
X7Y72D01*
X255Y72D02*
X262Y72D01*
X0Y71D02*
X7Y71D01*
X255Y71D02*
X262Y71D01*
X0Y70D02*
X7Y70D01*
X255Y70D02*
X262Y70D01*
X0Y69D02*
X7Y69D01*
X260Y69D02*
X262Y69D01*
X0Y68D02*
X7Y68D01*
X260Y68D02*
X262Y68D01*
X0Y67D02*
X7Y67D01*
X260Y67D02*
X262Y67D01*
X0Y66D02*
X7Y66D01*
X260Y66D02*
X262Y66D01*
X0Y65D02*
X7Y65D01*
X260Y65D02*
X262Y65D01*
X0Y64D02*
X7Y64D01*
X260Y64D02*
X262Y64D01*
X0Y63D02*
X7Y63D01*
X260Y63D02*
X262Y63D01*
X0Y62D02*
X7Y62D01*
X260Y62D02*
X262Y62D01*
X0Y61D02*
X7Y61D01*
X260Y61D02*
X262Y61D01*
X0Y60D02*
X7Y60D01*
X260Y60D02*
X262Y60D01*
X0Y59D02*
X7Y59D01*
X260Y59D02*
X262Y59D01*
X0Y58D02*
X7Y58D01*
X260Y58D02*
X262Y58D01*
X0Y57D02*
X7Y57D01*
X260Y57D02*
X262Y57D01*
X0Y56D02*
X7Y56D01*
X260Y56D02*
X262Y56D01*
X0Y55D02*
X7Y55D01*
X260Y55D02*
X262Y55D01*
X0Y54D02*
X7Y54D01*
X260Y54D02*
X262Y54D01*
X0Y53D02*
X7Y53D01*
X260Y53D02*
X262Y53D01*
X0Y52D02*
X7Y52D01*
X260Y52D02*
X262Y52D01*
X0Y51D02*
X7Y51D01*
X260Y51D02*
X262Y51D01*
X0Y50D02*
X7Y50D01*
X260Y50D02*
X262Y50D01*
X0Y49D02*
X7Y49D01*
X260Y49D02*
X262Y49D01*
X0Y48D02*
X7Y48D01*
X260Y48D02*
X262Y48D01*
X0Y47D02*
X7Y47D01*
X260Y47D02*
X262Y47D01*
X0Y46D02*
X7Y46D01*
X260Y46D02*
X262Y46D01*
X0Y45D02*
X7Y45D01*
X260Y45D02*
X262Y45D01*
X0Y44D02*
X7Y44D01*
X260Y44D02*
X262Y44D01*
X0Y43D02*
X7Y43D01*
X260Y43D02*
X262Y43D01*
X0Y42D02*
X7Y42D01*
X260Y42D02*
X262Y42D01*
X0Y41D02*
X7Y41D01*
X260Y41D02*
X262Y41D01*
X0Y40D02*
X7Y40D01*
X260Y40D02*
X262Y40D01*
X0Y39D02*
X7Y39D01*
X260Y39D02*
X262Y39D01*
X0Y38D02*
X7Y38D01*
X260Y38D02*
X262Y38D01*
X0Y37D02*
X7Y37D01*
X260Y37D02*
X262Y37D01*
X0Y36D02*
X7Y36D01*
X260Y36D02*
X262Y36D01*
X0Y35D02*
X7Y35D01*
X260Y35D02*
X262Y35D01*
X0Y34D02*
X7Y34D01*
X260Y34D02*
X262Y34D01*
X0Y33D02*
X7Y33D01*
X260Y33D02*
X262Y33D01*
X0Y32D02*
X7Y32D01*
X260Y32D02*
X262Y32D01*
X0Y31D02*
X7Y31D01*
X260Y31D02*
X262Y31D01*
X0Y30D02*
X7Y30D01*
X260Y30D02*
X262Y30D01*
X0Y29D02*
X7Y29D01*
X260Y29D02*
X262Y29D01*
X0Y28D02*
X7Y28D01*
X260Y28D02*
X262Y28D01*
X0Y27D02*
X7Y27D01*
X260Y27D02*
X262Y27D01*
X0Y26D02*
X7Y26D01*
X260Y26D02*
X262Y26D01*
X0Y25D02*
X7Y25D01*
X260Y25D02*
X262Y25D01*
X0Y24D02*
X7Y24D01*
X260Y24D02*
X262Y24D01*
X0Y23D02*
X7Y23D01*
X260Y23D02*
X262Y23D01*
X0Y22D02*
X7Y22D01*
X260Y22D02*
X262Y22D01*
X0Y21D02*
X7Y21D01*
X260Y21D02*
X262Y21D01*
X0Y20D02*
X7Y20D01*
X260Y20D02*
X262Y20D01*
X0Y19D02*
X7Y19D01*
X260Y19D02*
X262Y19D01*
X0Y18D02*
X7Y18D01*
X260Y18D02*
X262Y18D01*
X0Y17D02*
X7Y17D01*
X260Y17D02*
X262Y17D01*
X0Y16D02*
X7Y16D01*
X260Y16D02*
X262Y16D01*
X0Y15D02*
X7Y15D01*
X260Y15D02*
X262Y15D01*
X0Y14D02*
X7Y14D01*
X260Y14D02*
X262Y14D01*
X0Y13D02*
X7Y13D01*
X260Y13D02*
X262Y13D01*
X0Y12D02*
X7Y12D01*
X260Y12D02*
X262Y12D01*
X0Y11D02*
X7Y11D01*
X260Y11D02*
X262Y11D01*
X0Y10D02*
X7Y10D01*
X260Y10D02*
X262Y10D01*
X0Y9D02*
X7Y9D01*
X260Y9D02*
X262Y9D01*
X0Y8D02*
X72Y8D01*
X100Y8D02*
X122Y8D01*
X150Y8D02*
X172Y8D01*
X200Y8D02*
X217Y8D01*
X260Y8D02*
X262Y8D01*
X0Y7D02*
X73Y7D01*
X98Y7D02*
X123Y7D01*
X148Y7D02*
X173Y7D01*
X198Y7D02*
X217Y7D01*
X260Y7D02*
X262Y7D01*
X0Y6D02*
X75Y6D01*
X97Y6D02*
X125Y6D01*
X147Y6D02*
X175Y6D01*
X196Y6D02*
X217Y6D01*
X260Y6D02*
X262Y6D01*
X0Y5D02*
X77Y5D01*
X95Y5D02*
X127Y5D01*
X144Y5D02*
X177Y5D01*
X194Y5D02*
X217Y5D01*
X260Y5D02*
X262Y5D01*
X0Y4D02*
X80Y4D01*
X92Y4D02*
X130Y4D01*
X142Y4D02*
X180Y4D01*
X191Y4D02*
X217Y4D01*
X260Y4D02*
X262Y4D01*
X0Y3D02*
X217Y3D01*
X260Y3D02*
X262Y3D01*
X0Y2D02*
X217Y2D01*
X260Y2D02*
X262Y2D01*
X0Y1D02*
X217Y1D01*
X260Y1D02*
X262Y1D01*
D02*
G04 End of Silk0*
M02*